inDegrees=yes
name=ik_lifting_orientations
DataType=double
version=3
OpenSimVersion=4.5-2024-01-10-34fd6af
endheader
time	pelvis_tilt	pelvis_list	pelvis_rotation	pelvis_tx	pelvis_ty	pelvis_tz	hip_flexion_r	hip_adduction_r	hip_rotation_r	knee_angle_r	knee_angle_r_beta	ankle_angle_r	subtalar_angle_r	mtp_angle_r	hip_flexion_l	hip_adduction_l	hip_rotation_l	knee_angle_l	knee_angle_l_beta	ankle_angle_l	subtalar_angle_l	mtp_angle_l	lumbar_extension	lumbar_bending	lumbar_rotation	arm_flex_r	arm_add_r	arm_rot_r	elbow_flex_r	pro_sup_r	wrist_flex_r	wrist_dev_r	arm_flex_l	arm_add_l	arm_rot_l	elbow_flex_l	pro_sup_l	wrist_flex_l	wrist_dev_l
0.44	-10.27630758692731	7.71579363738194	-83.58339365270324	0	0.9399999998679526	0	32.78384368543283	-10.6891864751936	0	62.11209345060193	1.08406053601941	-5.470843768769371	0	0	32.78384368543283	-10.6891864751936	0	62.11209345060193	1.08406053601941	-5.470843768769371	0	0	42.72216689766719	17.63377497279179	-13.81509362867249	-33.57912361904565	-3.300477800688796	-5.282900290806728	31.06092775584408	1.559706422443672	0	0	0	-5.881225905967913	0	90.10258461172882	1.559706422443672	0	0
0.45	-10.79444312416568	7.677940025376325	-82.0590297127266	0	0.9399999998679526	0	32.84672770551128	-10.68064597371932	0	62.10147723660876	1.083875248131132	-5.463827424831093	0	0	32.84672770551128	-10.68064597371932	0	62.10147723660876	1.083875248131132	-5.463827424831093	0	0	44.19609896922266	17.09160142165018	-15.22280004595013	-34.59819034614274	-3.144573635565949	-5.293917139340778	33.83026497939461	1.553646410895146	0	0	0	-5.909409803094855	0	90.10218582568953	1.553646410895146	0	0
0.46	-11.10784451938059	8.533271237256068	-81.89372407686464	0	0.9399999998679526	0	32.87264650633348	-10.6768113829006	0	62.09728866976083	1.083802143848696	-5.460599005360742	0	0	32.87264650633348	-10.6768113829006	0	62.09728866976083	1.083802143848696	-5.460599005360742	0	0	45.66735843802328	17.11728061708628	-15.47375277799643	-34.37345357408894	-2.671462618769598	-4.373804035281425	34.77586054640889	1.551200872598745	0	0	0	-5.920639263238744	0	90.10202489857878	1.551200872598745	0	0
0.47	-11.10676763920786	8.540919755169352	-81.89973275638323	0	0.9399999998679526	0	32.94560154987099	-10.66706334316524	0	62.08494017933103	1.083586622033045	-5.45263621378317	0	0	32.94560154987099	-10.66706334316524	0	62.08494017933103	1.083586622033045	-5.45263621378317	0	0	45.68088930319981	17.11886443020001	-15.46296937847694	-34.71935021280041	-2.549386487237488	-2.749601871133949	37.6320616342337	1.544147587243479	0	0	0	-5.953502276700826	0	90.10156074717706	1.544147587243479	0	0
0.48	-12.43817346102159	9.182461158657267	-81.1189685063249	0	0.9399999998679526	0	32.95138970925046	-10.66596937801186	0	62.08417575348146	1.083573280285083	-5.451667526053914	0	0	32.95138970925046	-10.66596937801186	0	62.08417575348146	1.083573280285083	-5.451667526053914	0	0	47.90942934793599	17.60189101690711	-16.73860039359404	-34.89931763345342	-2.247358780579074	-2.323291441208128	38.11437158012594	1.543645324444707	0	0	0	-5.955680963739727	0	90.1015276998853	1.543645324444707	0	0
0.49	-13.44881873666356	8.96350044934667	-80.52157366792227	0	0.9399999998679526	0	33.04512847311775	-10.65332615572122	0	62.06851269054709	1.083299908265931	-5.441331682762819	0	0	33.04512847311775	-10.65332615572122	0	62.06851269054709	1.083299908265931	-5.441331682762819	0	0	48.19132183346168	17.95480234320499	-17.83718761434205	-35.33325448195224	-2.019659921787496	-1.069590294704501	41.73311509797409	1.534616522514063	0	0	0	-5.997643392326882	0	90.10093354984491	1.534616522514063	0	0
0.5	-12.9880127004746	9.802460963219069	-79.80342313585675	0	0.9399999998679526	0	33.15077813475196	-10.63932835741618	0	62.05084008731668	1.082991463152162	-5.429965109695955	0	0	33.15077813475196	-10.63932835741618	0	62.05084008731668	1.082991463152162	-5.429965109695955	0	0	48.96404551207962	16.96842185024744	-17.92172105654845	-35.90760706805601	-2.46411982105091	0.258579484422812	45.70666076913014	1.524408448707369	0	0	0	-6.045166657202998	0	90.10026179404854	1.524408448707369	0	0
0.51	-13.3338356745552	10.65912247487054	-79.59869481941341	0	0.9399999998679526	0	33.23802711558158	-10.62782850355882	0	62.0363368104093	1.0827383332178	-5.420656810511989	0	0	33.23802711558158	-10.62782850355882	0	62.0363368104093	1.0827383332178	-5.420656810511989	0	0	49.93252516728283	16.97687851905008	-18.15282919571373	-36.28225037946839	-2.422511391604881	1.327651912586662	48.83078044011545	1.515979073831925	0	0	0	-6.084397339381092	0	90.09970708811275	1.515979073831925	0	0
0.52	-13.33470794445854	10.65924308584359	-79.58807779423067	0	0.9399999998679526	0	33.28742930823744	-10.62122377804681	0	62.02812033644693	1.082594928694252	-5.415272388430426	0	0	33.28742930823744	-10.62122377804681	0	62.02812033644693	1.082594928694252	-5.415272388430426	0	0	50.96291385405129	17.01347926374639	-18.11230800325803	-39.03424511483741	-2.655059887042944	2.791941311573073	52.20983567390041	1.511211435162395	0	0	0	-6.106579334234963	0	90.09939334767436	1.511211435162395	0	0
0.53	-13.31556433660537	9.964972727854065	-79.36980242620798	0	0.9399999998679526	0	33.4296250431687	-10.60293325751775	0	62.00419957487753	1.082177432645281	-5.400560453191221	0	0	33.4296250431687	-10.60293325751775	0	62.00419957487753	1.082177432645281	-5.400560453191221	0	0	50.62606848120574	17.71236602334378	-19.20141196903784	-39.6737824054462	-4.471267496301392	4.958396220462924	59.72111516056682	1.497382122009008	0	0	0	-6.171207687389701	0	90.09848328400162	1.497382122009008	0	0
0.54	-13.31711982016803	9.971484140714331	-79.36194028733793	0	0.9399999998679526	0	33.58410096906584	-10.58392724749191	0	61.97805604646435	1.081721141996383	-5.385518813410628	0	0	33.58410096906584	-10.58392724749191	0	61.97805604646435	1.081721141996383	-5.385518813410628	0	0	49.61970019860462	17.67957476992254	-19.27064255158377	-40.30570464475252	-4.408632445096912	6.850429736963103	64.80894463412797	1.482237088647522	0	0	0	-6.242301488475399	0	90.09748662791975	1.482237088647522	0	0
0.55	-13.31493554743316	9.954775738221635	-79.36550111843499	0	0.9399999998679526	0	33.59771535291644	-10.58158586740399	0	61.97622852907206	1.08168924580075	-5.383511308873694	0	0	33.59771535291644	-10.58158586740399	0	61.97622852907206	1.08168924580075	-5.383511308873694	0	0	49.9034377553795	16.86508653934971	-20.12308440452188	-42.39422292761986	-4.971839763783745	8.34915195806437	68.65782560573152	1.481030018804697	0	0	0	-6.247598579786292	0	90.09740720374876	1.481030018804697	0	0
0.5600000000000001	-13.3102841856478	9.963657517083941	-79.37240788220022	0	0.9399999998679526	0	33.73658898548695	-10.56465786213895	0	61.95286030173179	1.081281393293307	-5.370171010850266	0	0	33.73658898548695	-10.56465786213895	0	61.95286030173179	1.081281393293307	-5.370171010850266	0	0	49.88909661127339	16.86544422326436	-20.09831167906088	-43.89009052345237	-6.16615708981077	9.510037499024211	73.93021194565127	1.467401395495227	0	0	0	-6.31159723235103	0	90.0965103379551	1.467401395495227	0	0
0.57	-12.97185939308606	9.100252994239227	-79.57488564316454	0	0.9399999998679526	0	33.86079233257344	-10.54959117223916	0	61.93196286568489	1.080916664229064	-5.358306855612923	0	0	33.86079233257344	-10.54959117223916	0	61.93196286568489	1.080916664229064	-5.358306855612923	0	0	48.91205639099501	16.8638645311656	-19.85789350506642	-45.20274375138857	-6.788932624657003	10.61955860200509	78.74885288880272	1.455193605072166	0	0	0	-6.368980464332995	0	90.09570697205663	1.455193605072166	0	0
0.58	-12.97233539707783	9.096490816019374	-79.56162973788777	0	0.9399999998679526	0	34.00544590327534	-10.53278501626033	0	61.90749279810741	1.080489580981651	-5.345283739622172	0	0	34.00544590327534	-10.53278501626033	0	61.90749279810741	1.080489580981651	-5.345283739622172	0	0	48.90837959829403	16.85968801774586	-19.87972044886952	-46.70967761913995	-7.794733220929677	11.41959612206166	84.25018756948725	1.440868172948786	0	0	0	-6.436600441342619	0	90.09476424155893	1.440868172948786	0	0
0.59	-12.97601299467165	9.111756109236216	-79.54903635784615	0	0.9399999998679526	0	34.01222974718574	-10.53165955762391	0	61.90658889609511	1.080473804915421	-5.344332303937788	0	0	34.01222974718574	-10.53165955762391	0	61.90658889609511	1.080473804915421	-5.344332303937788	0	0	48.92699161404701	16.86090660240072	-19.87935955522423	-48.39739830069223	-8.047900865150053	12.68691856401891	88.84805501083569	1.440262878841344	0	0	0	-6.439263299015225	0	90.09472441321842	1.440262878841344	0	0
0.6	-12.99034284499778	9.090222634051999	-79.55320871821178	0	0.9399999998679526	0	34.06063993989662	-10.52598208981782	0	61.89838468846184	1.080330614479704	-5.339904528697486	0	0	34.06063993989662	-10.52598208981782	0	61.89838468846184	1.080330614479704	-5.339904528697486	0	0	48.91326540128384	16.85966801050928	-19.8864778034022	-46.15998580711332	-7.195925005990484	14.2800670046938	88.6901384822179	1.43546695112509	0	0	0	-6.46191552128939	0	90.0944088016642	1.43546695112509	0	0
0.61	-12.97165762415075	9.100633332387082	-79.56922717137219	0	0.9399999998679526	0	34.14548449289747	-10.51618302871244	0	61.88390392439367	1.08007787746851	-5.332295676099769	0	0	34.14548449289747	-10.51618302871244	0	61.88390392439367	1.08007787746851	-5.332295676099769	0	0	48.91372439604753	16.86040126160054	-19.86783512257194	-45.41898791261062	-7.127062126828956	15.62696846196568	92.52856624606493	1.427029714028027	0	0	0	-6.501860769610803	0	90.09385355952722	1.427029714028027	0	0
